# xmcd CD database file
#
# Track frame offsets:
#	150
#	31409
#	58679
#	84058
#	114135
#	145170
#	186189
#	205555
#	234484
#
# Disc length: 3449 seconds
#
# Revision: 0
# Processed by: cddbd v1.4PL0 Copyright (c) Steve Scherf et al.
# Submitted via: CDex 1.50Beta7
#
DISCID=680d7709
DTITLE=Elvin Jones - It don't mean a thing
DYEAR=1900
DGENRE=Jazz
TTITLE0=Green Chimneys
TTITLE1=A lullaby of Itsugo village
TTITLE2=It don't mean a thing ( if it ain't got that swing)
TTITLE3=Lushlife
TTITLE4=Zenzo's spirit
TTITLE5=A flower is a lovesome thing-Ask me now
TTITLE6=Bopsy
TTITLE7=Fatima's Waltz
TTITLE8=A change is gonna come
EXTD=
EXTT0=
EXTT1=
EXTT2=
EXTT3=
EXTT4=
EXTT5=
EXTT6=
EXTT7=
EXTT8=
PLAYORDER=
